<?xml version="1.0" encoding="utf-8"?>
<!-- Generator: Adobe Illustrator 25.0.1, SVG Export Plug-In . SVG Version: 6.00 Build 0)  -->
<svg version="1.1" id="Layer_1" xmlns="http://www.w3.org/2000/svg" xmlns:xlink="http://www.w3.org/1999/xlink" x="0px" y="0px"
	 viewBox="0 0 1920 1080" style="enable-background:new 0 0 1920 1080;" xml:space="preserve">
<style type="text/css">
	.st0{fill:url(#SVGID_1_);}
	.st1{fill:url(#SVGID_2_);}
	.st2{fill:url(#SVGID_3_);}
	.st3{fill:url(#SVGID_4_);}
	.st4{fill:url(#SVGID_5_);}
	.st5{fill:url(#SVGID_6_);}
	.st6{fill:url(#SVGID_7_);}
	.st7{fill:url(#SVGID_8_);}
	.st8{fill:url(#SVGID_9_);}
	.st9{fill:url(#SVGID_10_);}
	.st10{fill:url(#SVGID_11_);}
	.st11{fill:url(#SVGID_12_);}
	.st12{fill:url(#SVGID_13_);}
	.st13{fill:url(#SVGID_14_);}
	.st14{fill:url(#SVGID_15_);}
	.st15{fill:url(#SVGID_16_);}
	.st16{fill:url(#SVGID_17_);}
	.st17{fill:url(#SVGID_18_);}
	.st18{fill:url(#SVGID_19_);}
	.st19{fill:url(#SVGID_20_);}
	.st20{fill:url(#SVGID_21_);}
	.st21{fill:url(#SVGID_22_);}
	.st22{fill:url(#SVGID_23_);}
	.st23{fill:url(#SVGID_24_);}
	.st24{fill:url(#SVGID_25_);}
</style>
<g>
	<linearGradient id="SVGID_1_" gradientUnits="userSpaceOnUse" x1="563.5524" y1="474.952" x2="952.2848" y2="463.6844">
		<stop  offset="0" style="stop-color:#00A99D"/>
		<stop  offset="0.1267" style="stop-color:#029E95"/>
		<stop  offset="0.3487" style="stop-color:#078180"/>
		<stop  offset="0.6395" style="stop-color:#10525E"/>
		<stop  offset="0.9704" style="stop-color:#1B1432"/>
	</linearGradient>
	<polygon class="st0" points="840.14,444.5 824.55,492.5 813.81,492.5 747.74,444.5 	"/>
	<linearGradient id="SVGID_2_" gradientUnits="userSpaceOnUse" x1="409.3207" y1="520.9373" x2="1106.5038" y2="504.0359">
		<stop  offset="0" style="stop-color:#00FFFF"/>
		<stop  offset="0.2216" style="stop-color:#06C8CF"/>
		<stop  offset="0.7623" style="stop-color:#15485F"/>
		<stop  offset="1" style="stop-color:#1B1432"/>
	</linearGradient>
	<polygon class="st1" points="960,598.71 919.17,628.38 888.56,606.14 847.73,576.47 806.9,546.81 732.15,492.5 666.09,444.5 
		600.41,396.78 600.5,396.5 855.74,396.5 840.14,444.5 747.74,444.5 813.81,492.5 822.49,498.81 863.33,528.48 904.16,558.14 	"/>
	<linearGradient id="SVGID_3_" gradientUnits="userSpaceOnUse" x1="584.42" y1="527.41" x2="919.17" y2="527.41">
		<stop  offset="0" style="stop-color:#00A99D"/>
		<stop  offset="0.1267" style="stop-color:#029E95"/>
		<stop  offset="0.3487" style="stop-color:#078180"/>
		<stop  offset="0.6395" style="stop-color:#10525E"/>
		<stop  offset="0.9704" style="stop-color:#1B1432"/>
	</linearGradient>
	<polygon class="st2" points="919.17,628.38 878.34,658.04 872.97,654.14 832.13,624.48 791.3,594.81 650.48,492.5 584.42,444.5 
		584.5,444.5 600.41,396.78 666.09,444.5 732.15,492.5 806.9,546.81 847.73,576.47 888.56,606.14 	"/>
	<g>
		<linearGradient id="SVGID_4_" gradientUnits="userSpaceOnUse" x1="603.5" y1="514" x2="919.5" y2="514">
			<stop  offset="0" style="stop-color:#00A99D"/>
			<stop  offset="0.4028" style="stop-color:#00A79C"/>
			<stop  offset="0.5479" style="stop-color:#02A097"/>
			<stop  offset="0.6513" style="stop-color:#04958E"/>
			<stop  offset="0.735" style="stop-color:#078482"/>
			<stop  offset="0.8067" style="stop-color:#0B6E72"/>
			<stop  offset="0.8701" style="stop-color:#10525F"/>
			<stop  offset="0.9261" style="stop-color:#153348"/>
			<stop  offset="0.9704" style="stop-color:#1B1432"/>
		</linearGradient>
		<polygon class="st3" points="919.5,628.5 879.89,600.02 840.35,571.45 761.28,514.3 682.35,456.95 642.89,428.27 603.5,399.5 
			643.11,427.98 682.65,456.55 761.72,513.7 840.65,571.05 880.11,599.73 		"/>
	</g>
	<linearGradient id="SVGID_5_" gradientUnits="userSpaceOnUse" x1="748" y1="445" x2="840" y2="445">
		<stop  offset="0" style="stop-color:#00FFFF"/>
		<stop  offset="0.3788" style="stop-color:#00FDFD"/>
		<stop  offset="0.5153" style="stop-color:#01F6F7"/>
		<stop  offset="0.6125" style="stop-color:#02EBED"/>
		<stop  offset="0.6912" style="stop-color:#04DADE"/>
		<stop  offset="0.7586" style="stop-color:#07C4CB"/>
		<stop  offset="0.8183" style="stop-color:#0AA8B3"/>
		<stop  offset="0.8723" style="stop-color:#0E8897"/>
		<stop  offset="0.922" style="stop-color:#126276"/>
		<stop  offset="0.9661" style="stop-color:#173952"/>
		<stop  offset="1" style="stop-color:#1B1432"/>
	</linearGradient>
	<line class="st4" x1="840" y1="445" x2="748" y2="445"/>
</g>
<g>
	
		<linearGradient id="SVGID_6_" gradientUnits="userSpaceOnUse" x1="563.5524" y1="474.952" x2="952.2848" y2="463.6844" gradientTransform="matrix(0.309 -0.9511 0.9511 0.309 149.7732 1286.145)">
		<stop  offset="0" style="stop-color:#00A99D"/>
		<stop  offset="0.1267" style="stop-color:#029E95"/>
		<stop  offset="0.3487" style="stop-color:#078180"/>
		<stop  offset="0.6395" style="stop-color:#10525E"/>
		<stop  offset="0.9704" style="stop-color:#1B1432"/>
	</linearGradient>
	<polygon class="st5" points="832.14,624.48 872.97,654.14 869.65,664.36 803.58,712.36 	"/>
	
		<linearGradient id="SVGID_7_" gradientUnits="userSpaceOnUse" x1="409.3207" y1="520.9373" x2="1106.5038" y2="504.0359" gradientTransform="matrix(0.309 -0.9511 0.9511 0.309 149.7732 1286.145)">
		<stop  offset="0" style="stop-color:#00FFFF"/>
		<stop  offset="0.2216" style="stop-color:#06C8CF"/>
		<stop  offset="0.7623" style="stop-color:#15485F"/>
		<stop  offset="1" style="stop-color:#1B1432"/>
	</linearGradient>
	<polygon class="st6" points="1015.84,558.14 1031.44,606.14 1000.83,628.38 959.99,658.04 919.17,687.71 844.42,742.02 
		778.35,790.01 712.67,837.73 712.43,837.56 791.31,594.81 832.14,624.48 803.58,712.36 869.65,664.36 878.33,658.05 919.17,628.38 
		960,598.71 	"/>
	
		<linearGradient id="SVGID_8_" gradientUnits="userSpaceOnUse" x1="584.42" y1="527.41" x2="919.17" y2="527.41" gradientTransform="matrix(0.309 -0.9511 0.9511 0.309 149.7732 1286.145)">
		<stop  offset="0" style="stop-color:#00A99D"/>
		<stop  offset="0.1267" style="stop-color:#029E95"/>
		<stop  offset="0.3487" style="stop-color:#078180"/>
		<stop  offset="0.6395" style="stop-color:#10525E"/>
		<stop  offset="0.9704" style="stop-color:#1B1432"/>
	</linearGradient>
	<polygon class="st7" points="1031.44,606.14 1047.03,654.14 1041.66,658.04 1000.83,687.72 960,717.38 819.18,819.69 
		753.11,867.69 753.14,867.61 712.67,837.73 778.35,790.01 844.42,742.02 919.17,687.71 959.99,658.04 1000.83,628.38 	"/>
	<g>
		
			<linearGradient id="SVGID_9_" gradientUnits="userSpaceOnUse" x1="603.5" y1="514" x2="919.5" y2="514" gradientTransform="matrix(0.309 -0.9511 0.9511 0.309 149.7732 1286.145)">
			<stop  offset="0" style="stop-color:#00A99D"/>
			<stop  offset="0.4028" style="stop-color:#00A79C"/>
			<stop  offset="0.5479" style="stop-color:#02A097"/>
			<stop  offset="0.6513" style="stop-color:#04958E"/>
			<stop  offset="0.735" style="stop-color:#078482"/>
			<stop  offset="0.8067" style="stop-color:#0B6E72"/>
			<stop  offset="0.8701" style="stop-color:#10525F"/>
			<stop  offset="0.9261" style="stop-color:#153348"/>
			<stop  offset="0.9704" style="stop-color:#1B1432"/>
		</linearGradient>
		<polygon class="st8" points="1031.65,605.87 992.33,634.73 952.94,663.51 874.15,721.05 795.22,778.39 755.75,807.06 
			716.21,835.63 755.53,806.77 794.93,777.99 873.71,720.45 952.65,663.11 992.12,634.44 		"/>
	</g>
	
		<linearGradient id="SVGID_10_" gradientUnits="userSpaceOnUse" x1="748" y1="445" x2="840" y2="445" gradientTransform="matrix(0.309 -0.9511 0.9511 0.309 149.7732 1286.145)">
		<stop  offset="0" style="stop-color:#00FFFF"/>
		<stop  offset="0.3788" style="stop-color:#00FDFD"/>
		<stop  offset="0.5153" style="stop-color:#01F6F7"/>
		<stop  offset="0.6125" style="stop-color:#02EBED"/>
		<stop  offset="0.6912" style="stop-color:#04DADE"/>
		<stop  offset="0.7586" style="stop-color:#07C4CB"/>
		<stop  offset="0.8183" style="stop-color:#0AA8B3"/>
		<stop  offset="0.8723" style="stop-color:#0E8897"/>
		<stop  offset="0.922" style="stop-color:#126276"/>
		<stop  offset="0.9661" style="stop-color:#173952"/>
		<stop  offset="1" style="stop-color:#1B1432"/>
	</linearGradient>
	<line class="st9" x1="832.57" y1="624.77" x2="804.14" y2="712.27"/>
</g>
<g>
	
		<linearGradient id="SVGID_11_" gradientUnits="userSpaceOnUse" x1="563.5524" y1="474.952" x2="952.2848" y2="463.6844" gradientTransform="matrix(-0.809 -0.5878 0.5878 -0.809 1419.2523 1541.1431)">
		<stop  offset="0" style="stop-color:#00A99D"/>
		<stop  offset="0.1267" style="stop-color:#029E95"/>
		<stop  offset="0.3487" style="stop-color:#078180"/>
		<stop  offset="0.6395" style="stop-color:#10525E"/>
		<stop  offset="0.9704" style="stop-color:#1B1432"/>
	</linearGradient>
	<polygon class="st10" points="1000.84,687.71 1041.66,658.04 1050.35,664.36 1075.59,742.02 	"/>
	
		<linearGradient id="SVGID_12_" gradientUnits="userSpaceOnUse" x1="409.3207" y1="520.9373" x2="1106.5038" y2="504.0359" gradientTransform="matrix(-0.809 -0.5878 0.5878 -0.809 1419.2523 1541.1431)">
		<stop  offset="0" style="stop-color:#00FFFF"/>
		<stop  offset="0.2216" style="stop-color:#06C8CF"/>
		<stop  offset="0.7623" style="stop-color:#15485F"/>
		<stop  offset="1" style="stop-color:#1B1432"/>
	</linearGradient>
	<polygon class="st11" points="994.51,492.5 1044.98,492.5 1056.67,528.48 1072.26,576.49 1087.86,624.48 1116.41,712.36 
		1141.64,790.02 1166.73,867.23 1166.49,867.4 960,717.38 1000.84,687.71 1075.59,742.02 1050.35,664.36 1047.04,654.15 
		1031.44,606.14 1015.84,558.15 	"/>
	
		<linearGradient id="SVGID_13_" gradientUnits="userSpaceOnUse" x1="584.42" y1="527.41" x2="919.17" y2="527.41" gradientTransform="matrix(-0.809 -0.5878 0.5878 -0.809 1419.2523 1541.1431)">
		<stop  offset="0" style="stop-color:#00A99D"/>
		<stop  offset="0.1267" style="stop-color:#029E95"/>
		<stop  offset="0.3487" style="stop-color:#078180"/>
		<stop  offset="0.6395" style="stop-color:#10525E"/>
		<stop  offset="0.9704" style="stop-color:#1B1432"/>
	</linearGradient>
	<polygon class="st12" points="1044.98,492.5 1095.45,492.5 1097.5,498.81 1113.11,546.81 1128.7,594.82 1182.49,760.36 
		1207.72,838.02 1207.65,837.97 1166.73,867.23 1141.64,790.02 1116.41,712.36 1087.86,624.48 1072.26,576.49 1056.67,528.48 	"/>
	<g>
		
			<linearGradient id="SVGID_14_" gradientUnits="userSpaceOnUse" x1="603.5" y1="514" x2="919.5" y2="514" gradientTransform="matrix(-0.809 -0.5878 0.5878 -0.809 1419.2523 1541.1431)">
			<stop  offset="0" style="stop-color:#00A99D"/>
			<stop  offset="0.4028" style="stop-color:#00A79C"/>
			<stop  offset="0.5479" style="stop-color:#02A097"/>
			<stop  offset="0.6513" style="stop-color:#04958E"/>
			<stop  offset="0.735" style="stop-color:#078482"/>
			<stop  offset="0.8067" style="stop-color:#0B6E72"/>
			<stop  offset="0.8701" style="stop-color:#10525F"/>
			<stop  offset="0.9261" style="stop-color:#153348"/>
			<stop  offset="0.9704" style="stop-color:#1B1432"/>
		</linearGradient>
		<polygon class="st13" points="1044.78,492.21 1060.09,538.53 1075.28,584.88 1105.66,677.59 1135.81,770.38 1150.87,816.78 
			1165.83,863.21 1150.53,816.89 1135.33,770.54 1104.95,677.83 1074.81,585.04 1059.74,538.64 		"/>
	</g>
	
		<linearGradient id="SVGID_15_" gradientUnits="userSpaceOnUse" x1="748" y1="445" x2="840" y2="445" gradientTransform="matrix(-0.809 -0.5878 0.5878 -0.809 1419.2523 1541.1431)">
		<stop  offset="0" style="stop-color:#00FFFF"/>
		<stop  offset="0.3788" style="stop-color:#00FDFD"/>
		<stop  offset="0.5153" style="stop-color:#01F6F7"/>
		<stop  offset="0.6125" style="stop-color:#02EBED"/>
		<stop  offset="0.6912" style="stop-color:#04DADE"/>
		<stop  offset="0.7586" style="stop-color:#07C4CB"/>
		<stop  offset="0.8183" style="stop-color:#0AA8B3"/>
		<stop  offset="0.8723" style="stop-color:#0E8897"/>
		<stop  offset="0.922" style="stop-color:#126276"/>
		<stop  offset="0.9661" style="stop-color:#173952"/>
		<stop  offset="1" style="stop-color:#1B1432"/>
	</linearGradient>
	<line class="st14" x1="1001.24" y1="687.39" x2="1075.67" y2="741.47"/>
</g>
<g>
	
		<linearGradient id="SVGID_16_" gradientUnits="userSpaceOnUse" x1="563.5524" y1="474.952" x2="952.2848" y2="463.6844" gradientTransform="matrix(-0.809 0.5878 -0.5878 -0.809 2054.0603 412.5953)">
		<stop  offset="0" style="stop-color:#00A99D"/>
		<stop  offset="0.1267" style="stop-color:#029E95"/>
		<stop  offset="0.3487" style="stop-color:#078180"/>
		<stop  offset="0.6395" style="stop-color:#10525E"/>
		<stop  offset="0.9704" style="stop-color:#1B1432"/>
	</linearGradient>
	<polygon class="st15" points="1113.1,546.81 1097.5,498.81 1106.19,492.5 1187.86,492.5 	"/>
	
		<linearGradient id="SVGID_17_" gradientUnits="userSpaceOnUse" x1="409.3207" y1="520.9373" x2="1106.5038" y2="504.0359" gradientTransform="matrix(-0.809 0.5878 -0.5878 -0.809 2054.0603 412.5953)">
		<stop  offset="0" style="stop-color:#00FFFF"/>
		<stop  offset="0.2216" style="stop-color:#06C8CF"/>
		<stop  offset="0.7623" style="stop-color:#15485F"/>
		<stop  offset="1" style="stop-color:#1B1432"/>
	</linearGradient>
	<polygon class="st16" points="925.49,492.5 941.08,444.5 978.92,444.5 1029.39,444.5 1079.86,444.5 1172.25,444.5 1253.91,444.51 
		1335.1,444.51 1335.19,444.79 1128.7,594.81 1113.1,546.81 1187.86,492.5 1106.19,492.5 1095.46,492.5 1044.98,492.5 994.51,492.5 
			"/>
	
		<linearGradient id="SVGID_18_" gradientUnits="userSpaceOnUse" x1="584.42" y1="527.41" x2="919.17" y2="527.41" gradientTransform="matrix(-0.809 0.5878 -0.5878 -0.809 2054.0603 412.5953)">
		<stop  offset="0" style="stop-color:#00A99D"/>
		<stop  offset="0.1267" style="stop-color:#029E95"/>
		<stop  offset="0.3487" style="stop-color:#078180"/>
		<stop  offset="0.6395" style="stop-color:#10525E"/>
		<stop  offset="0.9704" style="stop-color:#1B1432"/>
	</linearGradient>
	<polygon class="st17" points="941.08,444.5 956.68,396.51 963.32,396.5 1013.79,396.49 1064.26,396.5 1238.33,396.5 1319.98,396.5 
		1319.92,396.55 1335.1,444.51 1253.91,444.51 1172.25,444.5 1079.86,444.5 1029.39,444.5 978.92,444.5 	"/>
	<g>
		
			<linearGradient id="SVGID_19_" gradientUnits="userSpaceOnUse" x1="603.5" y1="514" x2="919.5" y2="514" gradientTransform="matrix(-0.809 0.5878 -0.5878 -0.809 2054.0603 412.5953)">
			<stop  offset="0" style="stop-color:#00A99D"/>
			<stop  offset="0.4028" style="stop-color:#00A79C"/>
			<stop  offset="0.5479" style="stop-color:#02A097"/>
			<stop  offset="0.6513" style="stop-color:#04958E"/>
			<stop  offset="0.735" style="stop-color:#078482"/>
			<stop  offset="0.8067" style="stop-color:#0B6E72"/>
			<stop  offset="0.8701" style="stop-color:#10525F"/>
			<stop  offset="0.9261" style="stop-color:#153348"/>
			<stop  offset="0.9704" style="stop-color:#1B1432"/>
		</linearGradient>
		<polygon class="st18" points="940.75,444.6 989.53,444.35 1038.31,444.23 1135.87,443.98 1233.44,443.99 1282.22,444 1331,444.12 
			1282.22,444.36 1233.44,444.49 1135.87,444.73 1038.31,444.73 989.53,444.72 		"/>
	</g>
	
		<linearGradient id="SVGID_20_" gradientUnits="userSpaceOnUse" x1="748" y1="445" x2="840" y2="445" gradientTransform="matrix(-0.809 0.5878 -0.5878 -0.809 2054.0603 412.5953)">
		<stop  offset="0" style="stop-color:#00FFFF"/>
		<stop  offset="0.3788" style="stop-color:#00FDFD"/>
		<stop  offset="0.5153" style="stop-color:#01F6F7"/>
		<stop  offset="0.6125" style="stop-color:#02EBED"/>
		<stop  offset="0.6912" style="stop-color:#04DADE"/>
		<stop  offset="0.7586" style="stop-color:#07C4CB"/>
		<stop  offset="0.8183" style="stop-color:#0AA8B3"/>
		<stop  offset="0.8723" style="stop-color:#0E8897"/>
		<stop  offset="0.922" style="stop-color:#126276"/>
		<stop  offset="0.9661" style="stop-color:#173952"/>
		<stop  offset="1" style="stop-color:#1B1432"/>
	</linearGradient>
	<line class="st19" x1="1112.92" y1="546.32" x2="1187.35" y2="492.25"/>
</g>
<g>
	
		<linearGradient id="SVGID_21_" gradientUnits="userSpaceOnUse" x1="563.5524" y1="474.952" x2="952.2848" y2="463.6844" gradientTransform="matrix(0.309 0.9511 -0.9511 0.309 1176.9142 -539.8834)">
		<stop  offset="0" style="stop-color:#00A99D"/>
		<stop  offset="0.1267" style="stop-color:#029E95"/>
		<stop  offset="0.3487" style="stop-color:#078180"/>
		<stop  offset="0.6395" style="stop-color:#10525E"/>
		<stop  offset="0.9704" style="stop-color:#1B1432"/>
	</linearGradient>
	<polygon class="st20" points="1013.79,396.5 963.32,396.5 960,386.29 985.23,308.62 	"/>
	
		<linearGradient id="SVGID_22_" gradientUnits="userSpaceOnUse" x1="409.3207" y1="520.9373" x2="1106.5038" y2="504.0359" gradientTransform="matrix(0.309 0.9511 -0.9511 0.309 1176.9142 -539.8834)">
		<stop  offset="0" style="stop-color:#00FFFF"/>
		<stop  offset="0.2216" style="stop-color:#06C8CF"/>
		<stop  offset="0.7623" style="stop-color:#15485F"/>
		<stop  offset="1" style="stop-color:#1B1432"/>
	</linearGradient>
	<polygon class="st21" points="904.16,558.14 863.33,528.48 875.02,492.49 890.62,444.49 906.21,396.5 934.77,308.62 960,230.96 
		985.09,153.75 985.39,153.75 1064.26,396.5 1013.79,396.5 985.23,308.62 960,386.29 956.68,396.49 941.08,444.5 925.49,492.5 	"/>
	
		<linearGradient id="SVGID_23_" gradientUnits="userSpaceOnUse" x1="584.42" y1="527.41" x2="919.17" y2="527.41" gradientTransform="matrix(0.309 0.9511 -0.9511 0.309 1176.9142 -539.8834)">
		<stop  offset="0" style="stop-color:#00A99D"/>
		<stop  offset="0.1267" style="stop-color:#029E95"/>
		<stop  offset="0.3487" style="stop-color:#078180"/>
		<stop  offset="0.6395" style="stop-color:#10525E"/>
		<stop  offset="0.9704" style="stop-color:#1B1432"/>
	</linearGradient>
	<polygon class="st22" points="863.33,528.48 822.5,498.81 824.55,492.5 840.14,444.49 855.74,396.49 909.53,230.95 934.77,153.29 
		934.79,153.37 985.09,153.75 960,230.96 934.77,308.62 906.21,396.5 890.62,444.49 875.02,492.49 	"/>
	<g>
		
			<linearGradient id="SVGID_24_" gradientUnits="userSpaceOnUse" x1="603.5" y1="514" x2="919.5" y2="514" gradientTransform="matrix(0.309 0.9511 -0.9511 0.309 1176.9142 -539.8834)">
			<stop  offset="0" style="stop-color:#00A99D"/>
			<stop  offset="0.4028" style="stop-color:#00A79C"/>
			<stop  offset="0.5479" style="stop-color:#02A097"/>
			<stop  offset="0.6513" style="stop-color:#04958E"/>
			<stop  offset="0.735" style="stop-color:#078482"/>
			<stop  offset="0.8067" style="stop-color:#0B6E72"/>
			<stop  offset="0.8701" style="stop-color:#10525F"/>
			<stop  offset="0.9261" style="stop-color:#153348"/>
			<stop  offset="0.9704" style="stop-color:#1B1432"/>
		</linearGradient>
		<polygon class="st23" points="863.32,528.83 878.16,482.36 893.12,435.93 923.03,343.07 953.19,250.28 968.27,203.89 
			983.46,157.53 968.62,204 953.66,250.43 923.74,343.3 893.59,436.08 878.51,482.47 		"/>
	</g>
	
		<linearGradient id="SVGID_25_" gradientUnits="userSpaceOnUse" x1="748" y1="445" x2="840" y2="445" gradientTransform="matrix(0.309 0.9511 -0.9511 0.309 1176.9142 -539.8834)">
		<stop  offset="0" style="stop-color:#00FFFF"/>
		<stop  offset="0.3788" style="stop-color:#00FDFD"/>
		<stop  offset="0.5153" style="stop-color:#01F6F7"/>
		<stop  offset="0.6125" style="stop-color:#02EBED"/>
		<stop  offset="0.6912" style="stop-color:#04DADE"/>
		<stop  offset="0.7586" style="stop-color:#07C4CB"/>
		<stop  offset="0.8183" style="stop-color:#0AA8B3"/>
		<stop  offset="0.8723" style="stop-color:#0E8897"/>
		<stop  offset="0.922" style="stop-color:#126276"/>
		<stop  offset="0.9661" style="stop-color:#173952"/>
		<stop  offset="1" style="stop-color:#1B1432"/>
	</linearGradient>
	<line class="st24" x1="1013.27" y1="396.52" x2="984.84" y2="309.02"/>
</g>
</svg>
